<?xml version="1.0" encoding="utf-8"?>
<!-- Generator: Adobe Illustrator 24.1.1, SVG Export Plug-In . SVG Version: 6.00 Build 0)  -->
<svg version="1.1" id="Layer_1" xmlns="http://www.w3.org/2000/svg" xmlns:xlink="http://www.w3.org/1999/xlink" x="0px" y="0px"
	 viewBox="0 0 512 512" style="enable-background:new 0 0 512 512;" xml:space="preserve">
<g id="XMLID_1_">
	<path id="XMLID_5_" d="M505.6,475.6L363.8,332c28-35.4,44.8-79.3,44.8-127.8C408.6,91.4,317.2,0,204.4,0S0.1,91.4,0.1,204.2
		s91.4,204.2,204.2,204.2c48.5,0,93.3-16.8,128.7-45.7l141.8,142.7c4.7,4.7,10.3,6.5,15.9,6.5s11.2-1.9,14.9-5.6
		C514,498.9,514,485,505.6,475.6z M203.4,364.6c-42.9,0-83-16.8-113.8-46.6S43,247.1,43,204.2s16.8-83,46.6-113.8
		c30.8-30.8,70.9-46.6,113.8-46.6s83,16.8,113.8,46.6s46.6,70.9,46.6,113.8s-16.8,83-46.6,113.8
		C287.4,347.9,246.3,364.6,203.4,364.6z"/>
</g>
</svg>
